PathFileType	4	(X/Y/Z)	C:\Users\Basilio\Documents\Thesis Gigler\squatting_fais\c3dfiles\040\SLS_pre_back1\markers_experimental.trc
DataRate	CameraRate	NumFrames	NumMarkers	Units	OrigDataRate	OrigDataStartFrame	OrigNumFrames
200.000000	200.000000	4	64	mm	200.000000	938	1073
Frame#	Time	FHD			LBHD			RBHD			C7			T10			CLAV			LSHO			LUUPA			LMUPA			LDUPA			LLEP			LMEP			LRAD			LUL			LRFIN			RSHO			RUPA1			RMUPA			RDUPA			RLEP			RMEP			RRAD			RUL			RUFIN			LASI			RASI			USACR			LSACR			RSACR			LTHI1			LTHI2			LTHI3			LTHI4			LLFC			LMFC			LTIB1			LTIB2			LTIB3			LTIB4			LLMAL			LMMAL			LHEE			LMT1			LMT2			LMT5			RTHI			RTHI2			RTHI3			RTHI4			RLFC			RMFC			RTIB1			RTIB2			RTIB3			RTIB4			RLMAL			RMMAL			RHEE			RMT1			RMT2			RMT5			*61			*62			*63			
		X1	Y1	Z1	X2	Y2	Z2	X3	Y3	Z3	X4	Y4	Z4	X5	Y5	Z5	X6	Y6	Z6	X7	Y7	Z7	X8	Y8	Z8	X9	Y9	Z9	X10	Y10	Z10	X11	Y11	Z11	X12	Y12	Z12	X13	Y13	Z13	X14	Y14	Z14	X15	Y15	Z15	X16	Y16	Z16	X17	Y17	Z17	X18	Y18	Z18	X19	Y19	Z19	X20	Y20	Z20	X21	Y21	Z21	X22	Y22	Z22	X23	Y23	Z23	X24	Y24	Z24	X25	Y25	Z25	X26	Y26	Z26	X27	Y27	Z27	X28	Y28	Z28	X29	Y29	Z29	X30	Y30	Z30	X31	Y31	Z31	X32	Y32	Z32	X33	Y33	Z33	X34	Y34	Z34	X35	Y35	Z35	X36	Y36	Z36	X37	Y37	Z37	X38	Y38	Z38	X39	Y39	Z39	X40	Y40	Z40	X41	Y41	Z41	X42	Y42	Z42	X43	Y43	Z43	X44	Y44	Z44	X45	Y45	Z45	X46	Y46	Z46	X47	Y47	Z47	X48	Y48	Z48	X49	Y49	Z49	X50	Y50	Z50	X51	Y51	Z51	X52	Y52	Z52	X53	Y53	Z53	X54	Y54	Z54	X55	Y55	Z55	X56	Y56	Z56	X57	Y57	Z57	X58	Y58	Z58	X59	Y59	Z59	X60	Y60	Z60	X61	Y61	Z61	X62	Y62	Z62	X63	Y63	Z63	X64	Y64	Z64	

939	4.69	-204.5970153808594	1776.7578125	-1232.669311523438	-326.3944702148438	1728.582763671875	-1283.062622070313	-388.5153808593751	1690.15576171875	-1155.765502929688	-387.3356323242189	1554.265747070313	-1201.760498046875	-374.1859741210938	1235.721435546875	-1179.231567382813	-251.8894195556641	1504.478515625	-1200.795776367188	-308.8515319824219	1544.143676757813	-1348.902587890625	-141.8466491699219	1487.352416992188	-1410.901489257813	-114.9213562011719	1503.164672851563	-1372.71484375	-74.75254821777345	1472.780395507813	-1405.89697265625	-19.06110763549805	1444.358764648438	-1400.287475585938	-34.64057540893555	1392.199951171875	-1361.39697265625	238.7003479003907	1463.073364257813	-1257.905395507813	249.3452911376954	1463.857788085938	-1334.393310546875	325.8067321777344	1483.73193359375	-1248.744995117188	-292.9337768554688	1538.5107421875	-1055.252319335938	-134.9046478271485	1447.973876953125	-993.9439697265627	-104.3238143920899	1475.78173828125	-1019.234130859375	-68.2128372192383	1430.047729492188	-1003.482971191406	-7.97828245162964	1420.157836914063	-1017.126586914063	-23.9080924987793	1372.878662109375	-1076.838012695313	249.5678405761719	1476.104370117188	-1150.732299804688	262.0466613769532	1446.803100585938	-1080.58203125	343.0777893066407	1483.087036132813	-1153.769653320313	-179.5329895019532	1080.100463867188	-1297.654296875	-163.7058258056641	1081.214111328125	-1065.563842773438	-360.5708007812501	1104.458251953125	-1163.758178710938	-365.6809997558594	1075.218627929688	-1190.583618164063	-362.0397949218751	1075.31640625	-1134.479370117188	-298.5986938476563	814.951354980469	-1326.347412109375	-257.9788513183594	740.7723388671876	-1333.057739257813	-213.2906341552735	746.2407836914064	-1342.708984375	-275.9467773437501	687.3020019531251	-1314.125244140625	-251.7917938232422	554.0004882812501	-1300.223266601563	-236.8642883300782	544.6311645507814	-1169.626953125	-241.8037414550782	327.7438354492188	-1240.816528320313	-319.1968078613282	298.7201232910157	-1272.51123046875	-279.0191955566407	285.9082031250001	-1260.349609375	-279.8406066894532	209.8395080566407	-1217.766357421875	-358.5185852050782	129.497787475586	-1217.193725585938	-321.1307983398438	149.91748046875	-1138.655029296875	-420.0439453125001	100.6663360595703	-1163.4150390625	-208.360092163086	59.89886474609376	-1132.443115234375	-206.9591827392579	47.53830718994141	-1178.014770507813	-256.8580932617188	30.65033340454102	-1226.76416015625	-183.6779327392578	810.8385009765627	-981.6638793945315	-140.8161926269532	759.8015136718751	-977.8769531250002	-108.723258972168	766.6175537109376	-980.6878662109377	-156.5538635253907	678.4903564453126	-981.0465087890627	-155.6521301269532	568.7200927734376	-995.5258789062502	-130.198471069336	558.3351440429689	-1119.1083984375	-267.4138793945313	430.3885803222657	-1047.875244140625	-371.3280029296876	461.7256774902345	-1058.3544921875	-351.7838439941407	419.116180419922	-1059.13427734375	-374.6654357910157	381.2300720214844	-1098.819091796875	-502.8406982421876	374.5834655761719	-1118.037841796875	-454.6349487304689	362.2414855957032	-1189.948486328125	-543.5203247070314	413.9604797363282	-1195.452392578125	-465.3040466308595	206.5928955078126	-1174.281860351563	-479.1969299316407	209.4081573486329	-1137.055053710938	-537.6162109375001	235.6296386718751	-1106.8193359375	nan	nan	nan	nan	nan	nan	nan	nan	nan	
940	4.695	-204.693099975586	1776.859252929688	-1232.883666992188	-326.7190246582032	1728.77001953125	-1283.458251953125	-388.5028686523439	1690.233154296875	-1156.008422851563	-387.2844543457032	1554.413452148438	-1201.959350585938	-374.2476501464844	1235.813354492188	-1179.125366210938	-251.8451538085938	1504.525024414063	-1200.911254882813	-309.0452270507813	1544.262939453125	-1349.117431640625	-141.7586059570313	1487.176513671875	-1411.118286132813	-114.8773880004883	1503.013793945313	-1372.941040039063	-74.66381072998048	1472.544677734375	-1406.065185546875	-19.01850509643555	1444.15869140625	-1400.415161132813	-34.43396377563477	1391.809448242188	-1361.33837890625	239.0959625244141	1463.109741210938	-1258.165893554688	249.4619598388672	1463.7841796875	-1334.70458984375	325.8533020019532	1483.88525390625	-1249.079345703125	-292.8547363281251	1538.700317382813	-1055.478637695313	-134.8272399902344	1448.258422851563	-993.9951782226565	-104.0946426391602	1476.113037109375	-1019.369995117188	-68.13803863525392	1430.282958984375	-1003.627319335938	-7.916837692260744	1420.336669921875	-1017.220458984375	-23.85855484008789	1372.877319335938	-1076.677124023438	249.7071990966797	1476.226928710938	-1151.016845703125	262.0513305664063	1446.850830078125	-1080.863891601563	343.1524963378907	1483.132080078125	-1154.080688476563	-179.7589569091797	1080.157470703125	-1297.709228515625	-163.7181549072266	1081.269897460938	-1065.558959960938	-360.5998840332032	1104.522583007813	-1163.63916015625	-365.8254394531251	1075.2490234375	-1190.441528320313	-362.1357421875001	1075.2822265625	-1134.388916015625	-298.8441467285157	814.9531250000002	-1326.285034179688	-258.1824951171876	740.8446655273439	-1333.061645507813	-213.5231170654297	746.3523559570314	-1342.763671875	-276.1035156250001	687.3435058593751	-1314.103149414063	-251.8072052001954	553.8085327148439	-1300.381103515625	-236.6798553466797	544.6053466796876	-1169.778442382813	-241.9792785644532	328.0295715332032	-1241.152465820313	-319.1935424804688	298.7172546386719	-1272.612670898438	-279.1235656738282	285.9794311523438	-1260.606201171875	-279.8693237304688	209.8946533203126	-1217.973754882813	-358.6052551269532	129.3861541748047	-1217.235229492188	-321.1781921386719	150.085205078125	-1138.778198242188	-419.9781188964845	100.5824203491211	-1163.54931640625	-208.1675567626954	59.77647781372072	-1132.565063476563	-206.9603424072266	47.52547073364259	-1178.119384765625	-256.8879699707032	30.6278305053711	-1226.8359375	-183.5802307128907	810.8251953125002	-981.6558227539065	-140.5320587158203	759.9562377929689	-977.9022216796877	-108.5731887817383	766.7883300781251	-980.638366699219	-156.3224182128907	678.5556640625001	-981.0103149414065	-155.2891540527344	568.9542846679689	-995.4785156250002	-129.990707397461	558.4227294921876	-1119.02490234375	-267.2423706054688	430.5759277343751	-1047.731201171875	-371.2653198242188	461.7937316894532	-1058.145874023438	-351.6649169921876	419.1842041015626	-1058.864990234375	-375.5003662109376	380.7849121093751	-1099.153076171875	-502.6890563964845	374.6711120605469	-1117.768310546875	-454.6705627441407	362.4625549316407	-1189.830444335938	-542.9424438476564	413.3702087402345	-1195.186889648438	-465.534393310547	206.6975097656251	-1173.841552734375	-479.2628784179689	209.6184539794922	-1136.664428710938	-537.5042114257814	235.7039794921876	-1106.47998046875	nan	nan	nan	nan	nan	nan	nan	nan	nan	
941	4.7	-204.4498901367188	1776.906005859375	-1233.31884765625	-326.2302551269532	1728.52783203125	-1283.754638671875	-388.4998779296876	1690.374389648438	-1156.336791992188	-387.111785888672	1554.563110351563	-1202.091186523438	-374.2821960449219	1235.906127929688	-1179.021362304688	-251.8592071533204	1504.533325195313	-1201.046508789063	-308.9216613769532	1544.238647460938	-1349.327880859375	-141.6399688720703	1486.966186523438	-1411.389526367188	-114.7841339111328	1502.909790039063	-1373.161743164063	-74.60091400146486	1472.240478515625	-1406.213623046875	-18.96385574340821	1443.923217773438	-1400.630737304688	-34.38120269775391	1391.584350585938	-1361.481323242188	239.2005767822266	1463.187255859375	-1258.595703125	249.5527343750001	1463.628784179688	-1335.0361328125	325.8765563964844	1484.080200195313	-1249.393188476563	-292.7514038085938	1538.81396484375	-1055.70361328125	-134.5857391357422	1448.411499023438	-993.9888916015627	-103.9326934814453	1476.144409179688	-1019.676452636719	-68.0556106567383	1430.396728515625	-1003.7119140625	-7.84237575531006	1420.397827148438	-1017.318298339844	-23.81192970275879	1372.935913085938	-1076.522827148438	249.7044219970704	1476.320678710938	-1151.1064453125	262.1212463378907	1446.955200195313	-1081.11865234375	343.1839599609376	1483.24853515625	-1154.307983398438	-180.0009155273438	1080.217895507813	-1297.698120117188	-163.7137451171875	1081.321044921875	-1065.618286132813	-360.6950378417969	1104.5537109375	-1163.513671875	-365.8672790527344	1075.237182617188	-1190.276977539063	-362.0816955566407	1075.326049804688	-1134.105346679688	-298.9187622070313	814.9097900390627	-1326.185668945313	-258.4104003906251	740.8778686523439	-1333.051635742188	-213.7289733886719	746.4775390625001	-1342.78857421875	-276.2468872070313	687.3813476562501	-1314.087280273438	-252.0152130126954	554.0941162109376	-1300.338989257813	-236.7182769775391	544.6049194335939	-1169.87841796875	-241.9166412353516	327.7810668945313	-1241.313110351563	-319.2096862792969	298.6715087890626	-1272.84521484375	-279.2391357421876	286.0367736816407	-1260.78076171875	-279.9753417968751	210.0858764648438	-1218.265380859375	-358.5608520507813	129.3284301757813	-1217.362548828125	-321.2298278808594	150.0988922119141	-1138.953979492188	-419.6148071289064	99.96574401855472	-1164.912963867188	-208.1333160400391	59.80782318115236	-1132.659301757813	-206.982650756836	47.59304809570313	-1178.182250976563	-256.9210205078126	30.59750938415528	-1226.91845703125	-183.2709197998047	810.8853149414065	-981.6123046875002	-140.3261108398438	760.0332641601564	-977.8994140625002	-108.2820205688477	766.8433227539064	-980.720397949219	-156.2281188964844	678.5653686523439	-980.9748535156252	-155.2328796386719	569.3323364257814	-995.3043212890627	-129.9877471923828	558.5130615234376	-1118.969116210938	-267.1168823242188	430.6614074707032	-1047.641845703125	-371.0867004394532	461.8048095703126	-1057.801025390625	-351.5619201660157	419.251190185547	-1058.705688476563	-374.5601196289063	381.4610900878907	-1098.362670898438	-502.5231323242189	374.5743103027344	-1117.436401367188	-454.6855773925782	362.5567016601563	-1189.598876953125	-542.9358520507814	413.5613403320314	-1194.793823242188	-465.6948242187501	206.8789672851563	-1173.494018554688	-479.2388305664064	209.8236846923829	-1136.342529296875	-537.3530883789064	235.8596191406251	-1106.000244140625	nan	nan	nan	nan	nan	nan	nan	nan	nan	
942	4.705	-204.1691894531251	1776.958618164063	-1233.776977539063	-326.1064147949219	1728.54248046875	-1284.079711914063	-388.4370727539064	1690.433837890625	-1156.659790039063	-387.0226440429689	1554.628662109375	-1202.283813476563	-374.3560180664063	1236.031372070313	-1178.927978515625	-251.5249938964844	1504.574096679688	-1201.258544921875	-308.6615600585938	1544.071411132813	-1349.507690429688	-141.6046905517578	1486.739379882813	-1411.605224609375	-114.7156677246094	1502.632690429688	-1373.4208984375	-74.40732574462892	1471.971557617188	-1406.503051757813	-18.82662010192871	1443.583251953125	-1400.842163085938	-34.24601364135743	1391.361083984375	-1361.456176757813	239.6854705810547	1463.15234375	-1258.935668945313	249.6519622802735	1463.515380859375	-1335.33544921875	326.0971984863282	1484.246826171875	-1249.953857421875	-292.1900329589844	1539.01953125	-1055.681884765625	-134.4776458740235	1448.8037109375	-994.0752563476565	-103.7786026000977	1476.454345703125	-1019.896667480469	-68.03272247314455	1430.62451171875	-1003.803894042969	-7.667750358581545	1420.586059570313	-1017.501770019531	-23.81483840942383	1372.992309570313	-1076.529663085938	249.7977142333985	1476.320678710938	-1151.337768554688	262.2643432617188	1446.893920898438	-1081.421752929688	343.2454223632813	1483.361450195313	-1154.532470703125	-180.2342376708985	1080.2314453125	-1297.681518554688	-163.7544555664063	1081.426147460938	-1065.643798828125	-360.7816467285157	1104.633422851563	-1163.3896484375	-365.9933471679688	1075.268676757813	-1190.045166015625	-362.0740966796876	1075.322265625	-1133.961791992188	-299.0841674804688	814.9654541015627	-1326.141967773438	-258.5536804199219	740.9108886718751	-1333.0029296875	-213.9140014648438	746.4767456054689	-1342.851928710938	-276.4028320312501	687.4442138671876	-1314.085571289063	-252.0967864990235	553.8867187500001	-1300.459716796875	-236.6412963867188	544.5615844726564	-1169.968872070313	-242.0208740234376	327.9044799804688	-1241.570922851563	-317.7894287109376	298.7172546386719	-1273.3623046875	-279.3598022460938	286.0793762207032	-1260.968627929688	-280.1037292480469	210.224105834961	-1218.498046875	-358.6223449707032	129.2905883789063	-1217.4453125	-321.2133483886719	150.0839385986328	-1139.131958007813	-419.8051757812501	100.3650207519532	-1164.890380859375	-208.1302795410157	59.87429428100587	-1132.795043945313	-206.9457702636719	47.52315902709962	-1178.263671875	-256.9537048339844	30.56310272216798	-1226.960693359375	-183.1660461425782	810.974304199219	-981.5820922851565	-140.0305480957032	760.0922241210939	-977.9319458007815	-108.1403732299805	766.9221801757814	-980.700378417969	-156.1244049072266	678.5971069335939	-980.9426879882815	-154.9519348144532	569.4066162109376	-995.2086181640627	-130.025146484375	558.5748901367189	-1119.010620117188	-266.9814453125001	430.6804809570314	-1047.523559570313	-370.9955139160157	461.9068908691407	-1057.548828125	-351.4860534667969	419.2887573242189	-1058.459106445313	-374.9719848632813	381.3677673339844	-1099.011108398438	-502.560272216797	374.7641296386719	-1117.069946289063	-454.6917114257814	362.6601257324219	-1189.27392578125	-543.1554565429689	413.5726623535157	-1194.349853515625	-465.770965576172	206.8924865722657	-1172.959838867188	-479.1972045898439	209.8459777832032	-1136.05224609375	-537.2612915039064	235.8811492919922	-1105.65185546875	nan	nan	nan	nan	nan	nan	nan	nan	nan	
